<?xml version="1.0" standalone="no"?><svg xmlns="http://www.w3.org/2000/svg" viewBox="0 0 1440 320"><path fill="#8f94fb" fill-opacity="0.75" d="M0,256L12,234.7C24,213,48,171,72,165.3C96,160,120,192,144,213.3C168,235,192,245,216,245.3C240,245,264,235,288,229.3C312,224,336,224,360,208C384,192,408,160,432,144C456,128,480,128,504,154.7C528,181,552,235,576,234.7C600,235,624,181,648,154.7C672,128,696,128,720,106.7C744,85,768,43,792,53.3C816,64,840,128,864,181.3C888,235,912,277,936,250.7C960,224,984,128,1008,96C1032,64,1056,96,1080,106.7C1104,117,1128,107,1152,133.3C1176,160,1200,224,1224,224C1248,224,1272,160,1296,160C1320,160,1344,224,1368,250.7C1392,277,1416,267,1428,261.3L1440,256L1440,0L1428,0C1416,0,1392,0,1368,0C1344,0,1320,0,1296,0C1272,0,1248,0,1224,0C1200,0,1176,0,1152,0C1128,0,1104,0,1080,0C1056,0,1032,0,1008,0C984,0,960,0,936,0C912,0,888,0,864,0C840,0,816,0,792,0C768,0,744,0,720,0C696,0,672,0,648,0C624,0,600,0,576,0C552,0,528,0,504,0C480,0,456,0,432,0C408,0,384,0,360,0C336,0,312,0,288,0C264,0,240,0,216,0C192,0,168,0,144,0C120,0,96,0,72,0C48,0,24,0,12,0L0,0Z"></path></svg>